<?xml version="1.0"?>
<svg width="150" height="100" xmlns="http://www.w3.org/2000/svg" xmlns:svg="http://www.w3.org/2000/svg" enable-background="new 0 0 571.5 632.057" version="1.1" xml:space="preserve">
 <g class="layer">
  <title>Layer 1</title>
  <g id="Layer_5"/>
  <g id="svg_36">
   <g id="Layer_6">
    <ellipse cx="80.38" cy="64.23" fill="#71C9F1" id="svg_1" rx="33.62" ry="35.09"/>
    <path d="m103.61,72.13c-1.12,-0.11 -2.43,0.04 -3.5,-0.39c-1.24,-0.5 -0.68,-1.6 -1.41,-2.5c-0.57,-0.7 -1.66,-0.92 -2.42,-1.33c-1.04,-0.55 -2.05,-1.19 -3.18,-1.51c-1.17,-0.33 -2.58,0.05 -3.61,0.65c-0.32,0.19 -1.06,0.83 -1.44,0.51c-0.4,-0.33 0.3,-1.71 -0.63,-1.37c-0.85,0.31 -1.25,1.66 -1.94,1.56c-0.83,-0.12 -1.5,-0.39 -2.35,-0.31c-0.74,0.06 -1.47,0.26 -1.99,-0.46c-0.55,-0.76 -0.04,-1.72 -0.39,-2.5c-0.59,-1.34 -2.11,-0.05 -3.03,-0.65c0.66,-0.52 1.28,-1.44 1.32,-2.32c0.04,-0.83 -0.5,-1.45 -1.26,-0.92c-0.42,0.29 -0.4,0.83 -0.72,1.18c-0.54,0.62 -3.29,0.78 -3.5,-0.33c-0.19,-1.04 -0.57,-2.97 -0.09,-3.96c0.37,-0.77 0.83,-1.67 1.66,-1.97c0.85,-0.3 2,0.04 2.95,-0.21c0.81,-0.22 1.71,-0.5 2.51,-0.09c0.81,0.41 0.95,1.35 1.3,2.16c0.2,0.47 0.94,1.09 0.75,-0.16c-0.16,-0.97 -1.03,-2.17 -0.57,-3.12c0.41,-0.85 1.4,-1.13 1.93,-1.86c0.52,-0.72 0.14,-1.64 0.54,-2.4c0.39,-0.75 1.31,-0.99 1.67,-1.78c0.18,-0.38 0.97,-2.64 1.76,-1.93c0.34,0.3 0.14,0.69 0.67,0.31c0.21,-0.16 1.02,-0.74 0.54,-1.02c-0.44,-0.25 -1.2,0.15 -1.43,-0.48c-0.42,-1.1 1.53,-1.66 1.79,-2.46c0.15,-0.47 0.15,-0.62 -1,-1.09c-0.79,-0.32 -1.62,-2.08 -2.41,-2.03c-0.44,0.03 -0.35,0.54 -0.63,0.62c-0.67,0.2 -1.03,-0.86 -1.49,-1.22c-0.33,-0.26 -1.57,-0.83 -1.98,-0.5c-0.98,0.78 1.65,4.71 -0.21,5.45c-0.45,0.18 -1.42,-1.84 -2.05,-2.11c-1.03,-0.44 -2.77,-0.29 -2.73,-1.97c0.04,-1.64 2.02,-1.16 2.49,-2.28c0.42,-0.99 -1.05,-2.52 -1.91,-2.29c-0.05,0.25 0.11,0.83 -0.04,1.02c-0.47,0.58 -3.39,0.01 -4.03,-0.2c-1.11,-0.36 -2.28,-0.61 -3.29,-1.21c-0.88,-0.52 -1.36,-1.5 -2.48,-1.06c-0.8,0.31 -1.28,0.74 -1.98,1.05c-0.67,0.3 -1.43,0.33 -2.1,0.67c-0.68,0.34 -0.28,1.6 -0.82,2.21c-0.65,0.74 -1.75,0.7 -2.64,0.79c-0.22,0.02 -1.66,0.06 -1.7,0.3c-0.06,0.38 3.64,-0.04 3.89,-0.11c0.59,-0.18 1.03,-0.63 1.6,-0.86c0.68,-0.27 1.5,-0.39 1.85,0.38c0.41,0.91 0.07,1.81 -0.24,2.68c-0.35,0.99 -0.23,1.23 0.03,2.21c0.16,0.61 0.04,0.99 -0.21,1.57c-0.62,1.44 -2.31,3.98 -1.69,5.66c0.48,1.29 1.56,2.38 2.39,3.42c0.57,0.7 0.48,1.4 0.89,2.2c0.38,0.77 0.95,1.5 1.41,2.22c0.67,1.04 0.81,2.38 1.61,3.33c0.7,0.83 2.82,2.3 3.93,2.34c0.33,0.01 0.63,-0.31 0.95,-0.28c1,0.12 1.61,1.12 2.47,1.53c0.79,0.37 1.88,0.06 2.55,0.71c0.84,0.82 0.91,2.06 2.18,2.42c0.63,0.18 1.45,-0.12 2.04,0.18c1.71,0.88 0.55,2.95 0,4.11c-0.57,1.2 -1.18,2.61 -0.93,3.98c0.21,1.19 1.09,1.96 1.69,2.93c0.52,0.84 0.67,1.95 1.55,2.5c0.69,0.43 2.03,0.46 2.43,1.27c0.44,0.9 -0.54,2.28 -0.76,3.15c-0.27,1.1 -0.6,2.19 -0.93,3.28c-0.33,1.08 -0.88,1.83 -1.33,2.82c-0.38,0.82 -1.43,4 0.16,3.86c2.27,-0.21 3.11,-3.31 5.04,-4.07c0.4,-0.16 3.74,-2.75 4.33,-3.27c0.6,-0.52 2.09,-1.14 2.29,-1.76s0.94,-1.09 1.2,-2.18c0.29,-1.25 2.19,-1.59 3.01,-2.44c1.12,-1.16 1.69,-2.86 2.27,-4.36c0.5,-1.28 1.58,-2.24 1.89,-3.63c0.39,-1.74 -0.92,-2.16 -2.49,-2.31l0,0z" fill="#359946" id="svg_2"/>
    <path d="m85.59,60.29c-0.25,-0.07 -0.55,-0.06 -0.81,-0.15c-0.4,-0.14 -0.74,-0.41 -1.13,-0.56c-0.41,-0.16 -0.83,-0.28 -1.27,-0.32c-0.24,-0.02 -0.48,-0.01 -0.72,0.04c-0.22,0.04 -0.45,0.11 -0.65,0.21c-0.09,0.04 -0.24,0.13 -0.19,0.26c0.1,0.23 0.73,0.08 0.91,0.08c0.66,0 1.43,-0.02 1.98,0.43c0.14,0.12 0.27,0.25 0.38,0.4c0.09,0.12 0.17,0.26 0.31,0.33c0.14,0.07 0.28,-0.01 0.4,-0.06c0.18,-0.08 0.36,-0.16 0.54,-0.21c0.15,-0.05 0.34,-0.07 0.45,-0.21c0.09,-0.11 -0.06,-0.18 -0.19,-0.22l0,0z" fill="#359946" id="svg_3"/>
    <path d="m88.62,60.88c-0.35,-0.09 -0.75,0.33 -1.25,0.12c-0.45,-0.19 -0.55,-0.42 -0.84,-0.47c-0.18,-0.04 -0.49,0.06 -0.25,0.28c0.41,0.37 0.7,0.71 1.2,0.95c0.31,0.14 1.08,0.03 1.38,-0.14c0.51,-0.3 0.3,-0.58 -0.24,-0.73l0,0z" fill="#359946" id="svg_4"/>
    <path d="m90.97,43.51c-0.14,-0.09 -0.62,-1.15 -1.01,-0.31c-0.51,1.1 1.35,1.36 1.55,1.12s-0.49,-0.79 -0.54,-0.82l0,0z" fill="#359946" id="svg_5"/>
    <path d="m82.5,35.04c-0.3,-0.13 -2.97,-1.25 -3.06,-0.37c-0.06,0.57 1.03,0.67 1.36,0.76c0.53,0.14 1.37,0.57 1.52,1.18c0.1,0.42 -0.46,0.95 0.32,0.95c0.35,0 1.09,0.21 1.09,0.21s0.35,0.21 0.65,0.16c0.84,-0.14 -0.55,-1.53 -0.75,-1.76c-0.38,-0.44 -0.58,-0.87 -1.13,-1.11l0,0z" fill="#359946" id="svg_6"/>
    <path d="m74.79,34.09c-0.25,-0.1 -0.89,-0.19 -0.95,-0.16c-0.57,0.33 -0.58,0.49 0.04,0.81c0.57,0.29 1.13,0.52 1.74,0.67c0.34,0.08 1.03,0.08 0.7,-0.47c-0.28,-0.47 -1.07,-0.67 -1.54,-0.85l0,0z" fill="#359946" id="svg_7"/>
    <path d="m80.72,32.02c-0.29,-0.23 -0.73,0.02 -1.01,0.15c-0.64,0.31 -1.3,0.11 -1.95,0.32c-0.17,0.06 -0.44,0.19 -0.45,0.41c-0.02,0.28 0.37,0.36 0.56,0.43c0.29,0.12 0.53,0.37 0.87,0.3c0.27,-0.06 0.48,-0.27 0.76,-0.33c0.31,-0.06 0.63,-0.1 0.87,-0.34c0.18,-0.18 0.66,-0.71 0.36,-0.95z" fill="#359946" id="svg_8"/>
    <path d="m89.77,36.2c-0.04,-0.3 0.01,-0.61 -0.04,-0.91c-0.27,-1.65 -2.24,-2.52 -3.55,-3.08c-0.53,-0.23 -1.12,-0.39 -1.7,-0.42c-0.76,-0.04 -1.75,-0.13 -2.42,0.33c-0.24,0.16 -0.36,0.39 -0.33,0.71c0.07,0.56 1.08,0.46 1.46,0.55c1.07,0.27 1.95,0.79 2.79,1.54c1.26,1.12 2.38,2.09 3.94,2.74c0.25,0.1 0.75,0.22 0.64,-0.22c-0.15,-0.61 -0.69,-0.51 -0.79,-1.24l0,0z" fill="#359946" id="svg_9"/>
    <path d="m107.35,44.95c0.05,1 0.17,2.01 0.48,2.96c0.15,0.46 0.4,0.87 0.55,1.33c0.37,1.07 0.16,2.22 0.36,3.32c0.2,1.08 0.89,1.95 1.2,2.99c0.28,0.96 0.1,2.09 0.5,3.01c0.23,0.53 0.65,0.93 0.93,1.42c0.36,0.63 0.76,2.31 1.53,2.51c0.54,0.14 0.49,-1.17 0.57,-1.51c0.08,-0.35 0.19,-0.71 0.28,-1.08c-0.73,-6.22 -3.02,-11.93 -6.45,-16.7c0,0.06 0.02,1.21 0.05,1.74l0,0z" fill="#359946" id="svg_10"/>
    <path d="m99.82,35.95c0.07,0.33 0.16,0.73 -0.01,0.87c-0.31,0.26 -0.79,-0.22 -1.03,-0.41c-0.19,-0.16 -0.56,-0.58 -0.83,-0.44c-0.45,0.23 1.1,1.39 1.23,1.53c0.22,0.21 0.37,0.5 0.6,0.69c0.46,0.38 0.54,-0.07 0.88,-0.31c0.5,-0.36 0.96,0.31 1.2,0.67c0.37,0.56 0.6,1.18 1.01,1.72c0.47,0.61 0.92,1.22 1.31,1.9c0.41,0.71 0.81,1.43 1.32,2.06c0.34,0.41 0.98,0.66 1.12,0.53c0.24,-0.22 -0.13,-0.65 -0.21,-0.88c-0.22,-0.62 -0.62,-1.15 -0.91,-1.73c-0.29,-0.59 -0.66,-1.95 -0.67,-1.99c-1.54,-1.7 -3.24,-3.25 -5.08,-4.61c0,0.09 0.03,0.24 0.06,0.39z" fill="#359946" id="svg_11"/>
    <path d="m91.29,31.62c0.65,0.58 1.47,0.93 2.27,1.26c0.5,0.21 0.65,0.47 1.25,0.78c0.74,0.38 1.43,0.78 2.21,1.06c0.23,0.08 0.79,0.4 1.02,0.24c0.1,-0.07 0.12,-0.29 0.09,-0.53c-2.33,-1.51 -4.85,-2.74 -7.51,-3.62c0.03,0.05 0.44,0.61 0.67,0.82l0,0z" fill="#359946" id="svg_12"/>
    <path d="m37.07,76.19l9.72,0l0,16.57c-4.08,1.9 -9.57,2.41 -13.61,-0.79c-3.47,-2.74 -5.42,-9.67 -4.27,-16.11s4.73,-9.83 8.48,-10.96c3.76,-1.13 8,0.14 9.19,0.99l-1.5,7.46c-1.67,-0.96 -3.1,-1.48 -4.93,-1.13c-4.48,0.87 -3.71,10.77 -2.56,12.89c0.93,1.72 1.66,1.59 1.66,1.59l0.02,-3.25l-2.21,-0.02l0,-7.25l0,0.01z" fill="#CCCCCC" id="svg_13"/>
    <path d="m62.33,66.37c-3.4,-2.37 -9.75,-2.22 -13.38,-0.97l0.04,28.33c3.55,0.58 9.83,1.01 13.26,-1.59c3.69,-2.8 4.97,-7.51 4.93,-13.15c-0.04,-5.8 -1.46,-10.24 -4.86,-12.61zm-3.21,12.96c-0.08,6.85 -2.24,7.43 -2.24,7.43l0,-14.94c0,0 2.39,0.51 2.24,7.51z" fill="#CCCCCC" id="svg_14"/>
    <polygon fill="#CCCCCC" id="svg_15" points="72.08133742139034,64.65824176846581 65.99135598555768,93.99977249448057 73.76263042846222,93.99977249448057 74.92084964982587,88.04585634024625 76.97575496276568,88.04585634024625 78.0592472072758,93.99977249448057 85.86788890167372,93.96083686890415 80.37569317613634,64.6971547219 "/>
    <polygon fill="#CCCCCC" id="svg_16" points="86.80193471861003,64.65824176846581 86.80193471861003,93.96083686890415 101.14889713156208,93.96083686890415 101.14889713156208,86.56709609332029 94.72265558908839,86.56709609332029 94.72265558908839,64.65824176846581 "/>
    <g id="svg_17">
     <path d="m45.33,91.74c-1.08,0.47 -3.4,0.93 -5.23,0.93c-2.88,0 -5.05,-0.86 -6.72,-2.61c-2.17,-2.18 -3.32,-6.07 -3.25,-10.59c0.11,-9.53 5.34,-13.51 10.68,-13.51c1.91,0 3.32,0.39 4.11,0.78l-0.86,4.4c-0.71,-0.35 -1.64,-0.58 -2.88,-0.58c-3.32,0 -5.98,2.37 -5.98,9.22c0,6.3 2.35,8.56 4.63,8.56c0.45,0 0.78,-0.04 0.97,-0.12l0,-6.34l-2.24,0l0,-4.16l6.76,0l0,14.01l0,0z" id="svg_18"/>
     <path d="m50.49,66.6c1.23,-0.31 3.03,-0.51 4.97,-0.51c3.18,0 5.38,0.78 6.99,2.34c2.17,2.02 3.29,5.49 3.29,10.59c0,5.29 -1.31,9.07 -3.51,11.09c-1.68,1.71 -4.18,2.53 -7.7,2.53c-1.53,0 -3.06,-0.16 -4.04,-0.27l0,-25.76l0,0zm4.9,21.79c0.23,0.08 0.6,0.08 0.86,0.08c2.35,0 4.41,-2.41 4.41,-9.65c0,-5.37 -1.35,-8.64 -4.3,-8.64c-0.34,0 -0.67,0 -0.97,0.12l0,18.09z" id="svg_19"/>
     <path d="m73.72,86.45l-1.12,5.99l-4.74,0l5.45,-26.23l5.86,0l4.9,26.23l-4.74,0l-1.08,-5.99l-4.52,0zm4.07,-3.97l-0.82,-5.49c-0.26,-1.59 -0.6,-4.2 -0.82,-5.95l-0.11,0c-0.26,1.75 -0.64,4.47 -0.9,5.99l-0.93,5.45l3.59,0l0,0z" id="svg_20"/>
     <path d="m88.33,66.22l4.9,0l0,21.91l6.46,0l0,4.32l-11.36,0l0,-26.23z" id="svg_21"/>
    </g>
   </g>
   <g id="Layer_3">
    <path d="m55.89,27.89l-0.35,0.96l27.87,10.69c0.06,-0.33 0.23,-0.63 0.32,-0.97l-27.84,-10.68z" fill="#ED1E3A" id="svg_22"/>
    <path d="m55.57,28.93l-5.07,30.48c0.33,0.23 0.66,0.44 1.01,0.64l5.14,-30.95l-1.08,-0.17z" fill="#ED1E3A" id="svg_23"/>
    <path d="m65.17,45.8c-9.96,6.42 -13.71,12.59 -14.36,13.76c0.25,0.16 0.51,0.31 0.77,0.45c1.54,-2.51 5.66,-8.18 14.08,-13.52c7.65,-4.86 14.35,-6.37 17.61,-6.83c0.05,-0.28 0.18,-0.53 0.31,-0.79c-2.14,0.27 -10.09,1.57 -18.41,6.94l0,0z" fill="#ED1E3A" id="svg_24"/>
    <polygon fill="#666667" id="svg_25" points="68.02235077322166,8.930825635191923 55.95161843620872,16.9710257040133 53.83529611303493,8.977523635461694 65.90602468698125,0.9374789652817981 "/>
    <path d="m54.89,18.75c0,0 -1.87,0.54 -3.48,1.53c-1.61,0.99 -2.96,2.44 -2.96,2.44l-5.11,-8.95c0,0 0.99,-1.92 2.64,-2.93c1.58,-0.97 3.81,-1.04 3.81,-1.04l5.11,8.95z" id="svg_26"/>
    <path d="m51.38,22.19c2.95,-2.01 6.17,-3.13 7.43,-2.63c-0.82,-0.39 -4.06,-1.68 -7.5,0.35c-3.57,2.11 -3.91,5.38 -3.91,6.6c0.16,-1.06 1.66,-2.74 3.98,-4.31l0,0z" fill="#666667" id="svg_27"/>
    <path d="m59.34,20.47c0.02,-0.15 0.01,-0.29 -0.03,-0.42c-0.02,-0.05 -0.04,-0.1 -0.07,-0.15c-0.02,-0.03 -0.04,-0.06 -0.06,-0.09c-0.05,-0.06 -0.11,-0.11 -0.18,-0.16c-0.2,-0.14 -0.49,-0.21 -0.84,-0.22c-0.06,0 -0.12,0 -0.18,0c-0.13,0 -0.25,0.01 -0.39,0.03c-0.07,0.01 -0.14,0.02 -0.21,0.03c-0.04,0 -0.07,0.01 -0.11,0.02c-0.07,0.01 -0.15,0.03 -0.22,0.04c-0.04,0.01 -0.08,0.02 -0.11,0.02c-0.08,0.02 -0.15,0.04 -0.24,0.06c-1.51,0.38 -3.47,1.29 -5.32,2.55c-1.8,1.22 -3.11,2.51 -3.67,3.52c-0.03,0.05 -0.06,0.11 -0.09,0.16c-0.03,0.05 -0.05,0.1 -0.07,0.16c-0.02,0.05 -0.04,0.1 -0.06,0.15c-0.06,0.17 -0.09,0.33 -0.1,0.47c0,0.04 0,0.08 0,0.12c0.02,0.24 0.13,0.43 0.34,0.56c1.1,0.73 4.52,-0.41 7.63,-2.53c0.1,-0.07 0.19,-0.14 0.29,-0.2c2.17,-1.53 3.56,-3.13 3.69,-4.14l0,0z" fill="#989898" id="svg_28"/>
    <rect height="2.46" id="svg_29" transform="matrix(0.102901, 0.107476, -0.104366, 0.105966, -0.711097, -34.1162)" width="49.9" x="512.22" y="14.59"/>
    <rect height="2.45" id="svg_30" transform="matrix(-0.0365085, -0.146174, 0.141945, -0.0375962, -13.6614, 32.0008)" width="49.89" x="-92.07" y="465.69"/>
    <path d="m55.9,27.74l-3.32,-6.28c-0.13,0.04 -0.25,0.07 -0.33,0.17l3.33,6.29l0.32,-0.18z" id="svg_31"/>
    <circle cx="56.13" cy="28.47" id="svg_32" r="0.89"/>
    <polygon fill="#666667" id="svg_33" points="45.12159926690765,24.453503354910026 32.61328625462738,32.80004279673085 30.574072929474823,24.75267549694945 43.08238970482171,16.405986796858997 "/>
    <path d="m43.16,20.89l0.38,0.56l3.52,-2.38c-0.04,-0.09 -0.33,-0.51 -0.38,-0.59l-3.52,2.41z" id="svg_34"/>
    <path d="m52.2,14.87l0.38,0.56l3.52,-2.38c-0.04,-0.09 -0.33,-0.51 -0.38,-0.59l-3.52,2.41z" id="svg_35"/>
   </g>
  </g>
 </g>

</svg>